<?xml version="1.0" encoding="utf-8"?>
<!-- Generator: Adobe Illustrator 19.2.1, SVG Export Plug-In . SVG Version: 6.00 Build 0)  -->
<svg version="1.1" id="N_logo" xmlns="http://www.w3.org/2000/svg" xmlns:xlink="http://www.w3.org/1999/xlink" x="0px" y="0px" width="84px" height="57"
	 viewBox="0 0 40.5 27.5" style="enable-background:new 0 0 40.5 27.5;" xml:space="preserve">
<style type="text/css">
	.st0{display:none;fill:#FFFFFF;}
	.st1{fill:#FFFFFF;}
	.st2{fill:#34455A;}
</style>
<path id="white_rectangle" class="st0" d="M92.3,519.6h-203c-14.3,0-26-11.7-26-26v-203c0-14.3,11.7-26,26-26h203
	c14.3,0,26,11.7,26,26v203C118.3,507.9,106.6,519.6,92.3,519.6z"/>
<path id="blue_cloud_1_" class="st1" d="M34.8,11.8c0.3-1.6,0.2-4.5-2.6-6.4c-0.8-0.6-2.2-1.2-3.8-1.2c-1.3,0-2.7,0.4-4.1,1.4
	C22.1,1.3,18.6,0,15.5,0c-2.1,0-4,0.6-5.1,1.3C7.8,2.9,4.9,6.1,6,11.7c-3.5,0.9-6,4-6,7.7c0,4.4,3.6,8,8.1,8h1.5H10h5.4h11.3
	l5.6,0.1h0.1c4.5,0,8.1-3.6,8.1-8C40.7,15.8,38.4,12.9,34.8,11.8z"/>
<path id="blue_cloud" class="st2" d="M34.8,11.8c0.3-1.6,0.2-4.5-2.6-6.4c-0.8-0.6-2.2-1.2-3.8-1.2c-1.3,0-2.7,0.4-4.1,1.4
	C22.1,1.3,18.6,0,15.5,0c-2.1,0-4,0.6-5.1,1.3C7.8,2.9,4.9,6.1,6,11.7c-3.5,0.9-6,4-6,7.7c0,4.4,3.6,8,8.1,8h1.5H10V11.3
	c0.3,0.2,0.8,0.4,1.5,0.7c0.7,0.2,1.6,0.4,2.5,0.4c1.3,0,2.5-0.2,3.8-0.6s2.6-0.5,4-0.6h0.1l-3.1,4.7c-0.7,0.1-1.3,0.2-1.8,0.3
	c-1,0.3-1.6,0.4-1.6,0.5v10.7h11.3l0.1-6.6c0-1.6-0.4-2.8-1.3-3.7c-0.2-0.2-0.5-0.4-0.8-0.6l3-4.2c1.2,0.5,2.2,1.3,3,2.3
	c1,1.3,1.6,3.1,1.6,5.4v7.5h0.1c4.5,0,8.1-3.6,8.1-8C40.7,15.8,38.4,12.9,34.8,11.8z M22.3,15.8c-0.3,0-0.7,0-1,0h-0.6l3-4.5
	c0.6,0.1,1.1,0.1,1.6,0.2L22.3,15.8z"/>
</svg>
